<svg width="24" height="25" viewBox="0 0 24 25" fill="none" xmlns="http://www.w3.org/2000/svg">
<path d="M21.2836 8.81808L15.3328 7.95323L12.6726 2.56026C12.6 2.41261 12.4805 2.29308 12.3328 2.22042C11.9625 2.03761 11.5125 2.18995 11.3273 2.56026L8.66717 7.95323L2.71639 8.81808C2.55233 8.84152 2.40233 8.91886 2.28748 9.03605C2.14864 9.17875 2.07214 9.37074 2.07477 9.56982C2.07741 9.7689 2.15897 9.95879 2.30155 10.0978L6.60702 14.2954L5.58983 20.2228C5.56597 20.3607 5.58123 20.5025 5.63387 20.6321C5.68651 20.7618 5.77442 20.8741 5.88764 20.9563C6.00086 21.0385 6.13486 21.0874 6.27444 21.0974C6.41401 21.1073 6.55359 21.078 6.67733 21.0126L12 18.2142L17.3226 21.0126C17.468 21.09 17.6367 21.1157 17.7984 21.0876C18.2062 21.0173 18.4805 20.6306 18.4101 20.2228L17.393 14.2954L21.6984 10.0978C21.8156 9.98292 21.893 9.83292 21.9164 9.66886C21.9797 9.2587 21.6937 8.87902 21.2836 8.81808Z" fill="#FFCB45"/>
</svg>
