<svg width="24" height="19" viewBox="0 0 24 19" fill="none" xmlns="http://www.w3.org/2000/svg">
<path d="M1.92001 0.232819C1.5381 0.232819 1.17183 0.379984 0.901777 0.641939C0.631725 0.903895 0.480011 1.25918 0.480011 1.62964C0.480011 2.00011 0.631725 2.35539 0.901777 2.61735C1.17183 2.8793 1.5381 3.02647 1.92001 3.02647H3.67681L4.11601 4.73339C4.12037 4.75304 4.12517 4.7726 4.13041 4.79206L6.08593 12.3768L4.80001 13.6228C2.98561 15.3828 4.27009 18.3916 6.83617 18.3916H19.2C19.5819 18.3916 19.9482 18.2444 20.2182 17.9824C20.4883 17.7205 20.64 17.3652 20.64 16.9947C20.64 16.6243 20.4883 16.269 20.2182 16.007C19.9482 15.7451 19.5819 15.5979 19.2 15.5979H6.83617L8.27617 14.2011H17.76C18.0274 14.2009 18.2894 14.1286 18.5168 13.9922C18.7441 13.8557 18.9279 13.6606 19.0474 13.4286L23.3674 5.04768C23.477 4.83477 23.5288 4.59821 23.5178 4.36045C23.5067 4.12268 23.4333 3.89159 23.3043 3.68912C23.1753 3.48664 22.9952 3.31948 22.7809 3.20351C22.5666 3.08754 22.3254 3.0266 22.08 3.02647H6.64321L6.19681 1.29022C6.1188 0.988157 5.93898 0.720043 5.68591 0.528464C5.43284 0.336885 5.12103 0.232827 4.80001 0.232819H1.92001Z" fill="#1D1D1D"/>
</svg>
